<svg xmlns="http://www.w3.org/2000/svg" viewBox="0 0 20 21" fill="none" width="80" height="84"><g transform="translate(7, 4)">
<g>
<animateTransform attributeName="transform" type="translate" values="0 0; -1.25 -2; 0 0" dur="2s" repeatCount="1" calcMode="spline" keyTimes="0;0.5;1" keySplines="0.25 0.1 0.25 1;0.25 0.1 0.25 1" additive="sum"/>
<animateTransform attributeName="transform" type="scale" values="1; 1.5; 1" dur="2s" repeatCount="1" calcMode="spline" keyTimes="0;0.5;1" keySplines="0.25 0.1 0.25 1;0.25 0.1 0.25 1" additive="sum"/>
<path fill-rule="evenodd" clip-rule="evenodd" d="M2.00421 6.66369C2.04523 6.83121 2.23024 6.90735 2.36805 6.81312C4.19902 5.56478 5.40862 3.02149 4.87183 0.320325C4.8649 0.285801 4.85541 0.242222 4.8453 0.196974C4.81332 0.0587049 4.682 -0.0258749 4.55066 0.00713914C4.50587 0.0187581 4.46064 0.0305175 4.41661 0.0427332C1.17007 0.942168 -0.575113 4.44188 0.171117 7.2201C0.173223 7.22975 0.17654 7.23986 0.17912 7.25041C0.237619 7.45578 0.431824 7.5835 0.632383 7.54731C0.641422 7.54566 0.649864 7.54415 0.657868 7.54308C0.770196 7.52061 0.88177 7.49408 0.992448 7.46317C1.12438 7.42592 1.20205 7.28177 1.16373 7.14351C0.604617 5.14832 1.35267 3.04336 2.92174 1.90449C3.04358 1.81628 3.1835 1.98909 3.08142 2.10187C2.31799 2.9434 1.46319 4.45773 2.00421 6.66372V6.66369Z" fill="#5AB850"/>
</g>
</g><g transform="translate(0, 0)">
<path d="M7.50722 19.6214V16.5547C7.5072 15.7746 8.14312 15.1408 8.93102 15.1356H11.8171C12.6087 15.1356 13.2505 15.7709 13.2505 16.5547V19.6309C13.2503 20.2932 13.7843 20.8345 14.453 20.85H16.3771C18.2951 20.85 19.85 19.3107 19.85 17.4118V8.68783C19.8398 7.94083 19.4855 7.23935 18.888 6.78303L12.3077 1.5353C11.1549 0.621565 9.51621 0.621565 8.36342 1.5353L1.81203 6.79255C1.21226 7.24702 0.857393 7.94966 0.850006 8.69736V17.4118C0.850006 19.3107 2.40488 20.85 4.32292 20.85H6.24697C6.93236 20.85 7.48798 20.2999 7.48798 19.6214" stroke="black" stroke-width="1.7" stroke-linejoin="round"/>
</g></svg>