<svg xmlns="http://www.w3.org/2000/svg" viewBox="-49 -41 145 123" fill="none" width="145" height="123"><g transform="translate(0, 0)">
<g>
<animateTransform attributeName="transform" type="translate" values="-31.85 -26.65; -49 -41; -31.85 -26.65" dur="1.8s" repeatCount="1" calcMode="spline" keyTimes="0;0.5;1" keySplines="0.25 0.1 0.25 1;0.25 0.1 0.25 1" additive="sum"/>
<animateTransform attributeName="transform" type="scale" values="2.3; 3; 2.3" dur="1.8s" repeatCount="1" calcMode="spline" keyTimes="0;0.5;1" keySplines="0.25 0.1 0.25 1;0.25 0.1 0.25 1" additive="sum"/>
<path fill-rule="evenodd" clip-rule="evenodd" d="M17.39 17.1408C16.0474 16.543 14.5774 16.4156 14.3814 16.4058C13.568 16.347 12.7448 16.4058 11.9314 16.543C9.35403 16.984 6.92362 18.5324 5.42422 20.757C4.98322 21.394 4.62062 22.0898 4.32662 22.815C4.03262 23.5402 3.82682 24.2948 3.68962 25.069C3.49362 26.1372 2.52342 26.833 1.51402 26.6272C0.504625 26.4214 -0.161775 25.4022 0.0342247 24.334C0.161625 23.7656 0.318425 23.207 0.514425 22.6582C0.867225 21.6684 1.32782 20.7178 1.87662 19.8358C4.64022 15.4258 9.70683 13.1424 14.6362 14.0734C15.3418 14.2106 17.145 14.6516 18.3602 15.4062C19.4382 16.0726 18.5072 17.7288 17.3998 17.131" fill="#3F4444"/>
<path fill-rule="evenodd" clip-rule="evenodd" d="M24.8282 10.6532C24.8968 10.9178 25.1908 11.0452 25.4064 10.8884C28.3366 8.88923 30.2672 4.82223 29.4146 0.510229C29.4048 0.451429 29.3852 0.382829 29.3656 0.314229C29.3166 0.088829 29.101 -0.0385713 28.8952 0.0104287C28.8266 0.0300287 28.7482 0.049629 28.6796 0.069229C23.4954 1.50983 20.7024 7.10563 21.8882 11.545C21.8882 11.5548 21.8882 11.5744 21.9078 11.594C22.0058 11.9174 22.3096 12.1232 22.633 12.0644C22.6526 12.0644 22.6624 12.0644 22.6722 12.0644C22.8486 12.0252 23.0348 11.986 23.2112 11.937C23.417 11.8782 23.5444 11.6528 23.4856 11.4274C22.5938 8.23263 23.7894 4.87123 26.2982 3.04843C26.4942 2.91123 26.7196 3.18563 26.553 3.36203C25.3378 4.71443 23.9658 7.12523 24.8282 10.6532Z" fill="#00A64C"/>
<path fill-rule="evenodd" clip-rule="evenodd" d="M30.5318 37.319C31.4236 37.7404 32.335 37.9952 33.2856 38.1618C33.4718 38.1912 33.6678 38.2206 33.854 38.2304C34.6674 38.2892 35.5004 38.2304 36.304 38.0834C38.8814 37.6424 41.302 36.094 42.8112 33.8694C43.2522 33.2324 43.6148 32.5366 43.9088 31.8114C44.2028 31.0862 44.4086 30.3316 44.5458 29.5574C44.7418 28.4892 45.712 27.7934 46.7214 27.9992C47.7308 28.205 48.3972 29.2242 48.2012 30.2924C48.0738 30.8608 47.9072 31.4194 47.721 31.9682C47.3682 32.958 46.9076 33.9086 46.3588 34.7906C43.5952 39.2006 38.5286 41.484 33.5992 40.553C32.8936 40.4158 32.1978 40.2394 31.5216 39.9944C30.8454 39.7494 30.1888 39.4162 29.5714 39.034C28.5326 38.3088 29.4244 36.7114 30.5416 37.3092" fill="#3F4444"/>
<path fill-rule="evenodd" clip-rule="evenodd" d="M47.7602 22.7856C47.2702 21.5214 46.643 20.3062 45.8394 19.189C45.0358 18.0718 44.0656 17.082 42.968 16.2784C40.7238 14.6418 37.9798 13.7206 35.2456 13.897C32.8348 14.0538 31.5608 14.5242 29.8948 15.416C28.268 16.2784 27.0528 17.3956 26.1414 18.5324L26.2002 14.8378C26.2002 14.4164 25.8376 14.1126 25.4554 14.2106L22.4762 14.9064C22.2018 14.9848 22.0156 15.2396 22.0254 15.5434L22.3292 27.9404C22.339 28.3324 22.3488 28.7734 22.3586 29.2438C22.4272 32.0172 21.0846 34.624 18.8208 36.045C17.978 36.5742 16.9784 37.0152 15.8024 37.2798C14.5774 37.5542 13.2936 37.6032 12.049 37.3974C11.51 37.2994 10.971 37.1524 10.4516 36.9662C7.29602 35.8784 5.21842 33.5558 4.06202 30.3022C3.66022 29.2634 2.54302 28.7636 1.56302 29.1948C0.583024 29.6162 0.132224 30.8118 0.524224 31.8408C1.01422 33.105 1.64142 34.3202 2.44502 35.4374C3.24862 36.5546 4.21882 37.5444 5.31642 38.348C7.56062 39.9846 10.3046 40.8568 13.0388 40.7294C14.891 40.6216 16.7334 40.1218 18.3896 39.2104C20.2222 38.201 21.555 36.8486 22.4958 35.5648C22.5448 37.4954 22.5742 38.9654 22.5742 38.9654C22.6036 41.1998 25.671 41.2586 25.7788 39.0242L26.014 25.0494C26.063 22.3348 27.4448 19.8456 29.6792 18.503C30.473 18.0228 31.3942 17.621 32.4722 17.3466C33.6972 17.033 34.981 17.0232 36.2256 17.229C36.7646 17.327 37.3036 17.474 37.823 17.6602C40.9786 18.748 43.0562 21.0706 44.2126 24.3242C44.6046 25.363 45.7316 25.853 46.7116 25.4316C47.6916 25.0102 48.1522 23.8146 47.7504 22.7856" fill="#00A64C"/>
<path d="M44.7124 12.819C43.7716 12.819 42.9778 12.4662 42.3506 11.7606C41.8018 11.153 41.5274 10.4474 41.5274 9.63403C41.5274 8.82063 41.8802 7.91903 42.5956 7.27223C43.1934 6.73323 43.9088 6.46863 44.7222 6.46863C45.5356 6.46863 46.4568 6.82143 47.084 7.51723C47.6328 8.11503 47.9072 8.83043 47.9072 9.64383C47.9072 10.4572 47.5544 11.3784 46.839 12.0056C46.2314 12.5544 45.5258 12.8288 44.7124 12.8288M44.7124 7.13503C44.0166 7.13503 43.4286 7.38003 42.9484 7.87003C42.4682 8.35023 42.2232 8.94803 42.2232 9.64383C42.2232 10.3396 42.4682 10.9472 42.9484 11.4372C43.4286 11.9272 44.0166 12.1624 44.7124 12.1624C45.4082 12.1624 45.9962 11.9174 46.4862 11.4372C46.9664 10.957 47.2114 10.3494 47.2114 9.64383C47.2114 8.93823 46.9664 8.36983 46.4862 7.87983C45.9962 7.38983 45.4082 7.14483 44.7124 7.14483M44.6536 9.90843H44.2812V11.0942H43.6344V8.00723H44.732C45.4768 8.00723 45.8492 8.31103 45.8492 8.92843C45.8492 9.54583 45.663 9.63403 45.3004 9.79083L45.9864 11.0942H45.222L44.6536 9.90843ZM44.2812 8.50703V9.37923H44.6536C45.026 9.37923 45.2024 9.24203 45.2024 8.96763C45.2024 8.69323 45.0162 8.51683 44.6536 8.51683H44.2812V8.50703Z" fill="#3F4444"/>
</g>
</g></svg>